<mxfile host="65bd71144e">
    <diagram id="C5RBs43oDa-KdzZeNtuy" name="Page-1">
        <mxGraphModel dx="523" dy="427" grid="1" gridSize="10" guides="1" tooltips="1" connect="1" arrows="1" fold="1" page="1" pageScale="1" pageWidth="1169" pageHeight="827" math="0" shadow="0">
            <root>
                <mxCell id="WIyWlLk6GJQsqaUBKTNV-0"/>
                <mxCell id="WIyWlLk6GJQsqaUBKTNV-1" parent="WIyWlLk6GJQsqaUBKTNV-0"/>
                <mxCell id="wn91IfR_4C1hUtWpSeAj-59" value="" style="group" parent="WIyWlLk6GJQsqaUBKTNV-1" vertex="1" connectable="0">
                    <mxGeometry x="50" y="20" width="700" height="550" as="geometry"/>
                </mxCell>
                <mxCell id="zkfFHV4jXpPFQw0GAbJ--17" value="&lt;&lt;interface&gt;&gt;&#10;Observable" style="swimlane;fontStyle=0;align=center;verticalAlign=top;childLayout=stackLayout;horizontal=1;startSize=40;horizontalStack=0;resizeParent=1;resizeLast=0;collapsible=1;marginBottom=0;rounded=0;shadow=0;strokeWidth=1;movable=1;resizable=1;rotatable=1;deletable=1;editable=1;locked=0;connectable=1;" parent="wn91IfR_4C1hUtWpSeAj-59" vertex="1">
                    <mxGeometry width="210" height="180" as="geometry">
                        <mxRectangle x="550" y="140" width="160" height="26" as="alternateBounds"/>
                    </mxGeometry>
                </mxCell>
                <mxCell id="zkfFHV4jXpPFQw0GAbJ--18" value="+ add(DisplayObserver obj)&#10;" style="text;align=left;verticalAlign=top;spacingLeft=4;spacingRight=4;overflow=hidden;rotatable=1;points=[[0,0.5],[1,0.5]];portConstraint=eastwest;movable=1;resizable=1;deletable=1;editable=1;locked=0;connectable=1;" parent="zkfFHV4jXpPFQw0GAbJ--17" vertex="1">
                    <mxGeometry y="40" width="210" height="26" as="geometry"/>
                </mxCell>
                <mxCell id="wn91IfR_4C1hUtWpSeAj-3" value="+ remove(DisplayObserver obj)" style="text;align=left;verticalAlign=top;spacingLeft=4;spacingRight=4;overflow=hidden;rotatable=1;points=[[0,0.5],[1,0.5]];portConstraint=eastwest;movable=1;resizable=1;deletable=1;editable=1;locked=0;connectable=1;" parent="zkfFHV4jXpPFQw0GAbJ--17" vertex="1">
                    <mxGeometry y="66" width="210" height="26" as="geometry"/>
                </mxCell>
                <mxCell id="wn91IfR_4C1hUtWpSeAj-2" value="+ notify()" style="text;align=left;verticalAlign=top;spacingLeft=4;spacingRight=4;overflow=hidden;rotatable=1;points=[[0,0.5],[1,0.5]];portConstraint=eastwest;movable=1;resizable=1;deletable=1;editable=1;locked=0;connectable=1;" parent="zkfFHV4jXpPFQw0GAbJ--17" vertex="1">
                    <mxGeometry y="92" width="210" height="26" as="geometry"/>
                </mxCell>
                <mxCell id="wn91IfR_4C1hUtWpSeAj-4" value="+ setTemp(int newTemp)" style="text;align=left;verticalAlign=top;spacingLeft=4;spacingRight=4;overflow=hidden;rotatable=1;points=[[0,0.5],[1,0.5]];portConstraint=eastwest;movable=1;resizable=1;deletable=1;editable=1;locked=0;connectable=1;" parent="zkfFHV4jXpPFQw0GAbJ--17" vertex="1">
                    <mxGeometry y="118" width="210" height="26" as="geometry"/>
                </mxCell>
                <mxCell id="wn91IfR_4C1hUtWpSeAj-5" value="+ getTemp() : intÂ " style="text;align=left;verticalAlign=top;spacingLeft=4;spacingRight=4;overflow=hidden;rotatable=1;points=[[0,0.5],[1,0.5]];portConstraint=eastwest;movable=1;resizable=1;deletable=1;editable=1;locked=0;connectable=1;" parent="zkfFHV4jXpPFQw0GAbJ--17" vertex="1">
                    <mxGeometry y="144" width="210" height="26" as="geometry"/>
                </mxCell>
                <mxCell id="wn91IfR_4C1hUtWpSeAj-8" value="&lt;&lt;interface&gt;&gt;&#10;DisplayObserver" style="swimlane;fontStyle=0;align=center;verticalAlign=top;childLayout=stackLayout;horizontal=1;startSize=40;horizontalStack=0;resizeParent=1;resizeLast=0;collapsible=1;marginBottom=0;rounded=0;shadow=0;strokeWidth=1;movable=1;resizable=1;rotatable=1;deletable=1;editable=1;locked=0;connectable=1;" parent="wn91IfR_4C1hUtWpSeAj-59" vertex="1">
                    <mxGeometry x="370" y="40" width="210" height="80" as="geometry">
                        <mxRectangle x="550" y="140" width="160" height="26" as="alternateBounds"/>
                    </mxGeometry>
                </mxCell>
                <mxCell id="wn91IfR_4C1hUtWpSeAj-9" value="+ update()" style="text;align=left;verticalAlign=top;spacingLeft=4;spacingRight=4;overflow=hidden;rotatable=1;points=[[0,0.5],[1,0.5]];portConstraint=eastwest;movable=1;resizable=1;deletable=1;editable=1;locked=0;connectable=1;" parent="wn91IfR_4C1hUtWpSeAj-8" vertex="1">
                    <mxGeometry y="40" width="210" height="26" as="geometry"/>
                </mxCell>
                <mxCell id="wn91IfR_4C1hUtWpSeAj-28" value="Use" style="endArrow=open;endSize=12;dashed=1;html=1;rounded=0;" parent="wn91IfR_4C1hUtWpSeAj-59" edge="1">
                    <mxGeometry width="160" relative="1" as="geometry">
                        <mxPoint x="210" y="80" as="sourcePoint"/>
                        <mxPoint x="370" y="80" as="targetPoint"/>
                    </mxGeometry>
                </mxCell>
                <mxCell id="wn91IfR_4C1hUtWpSeAj-29" value="WSObservableImpl" style="swimlane;fontStyle=1;align=center;verticalAlign=top;childLayout=stackLayout;horizontal=1;startSize=26;horizontalStack=0;resizeParent=1;resizeParentMax=0;resizeLast=0;collapsible=1;marginBottom=0;whiteSpace=wrap;html=1;" parent="wn91IfR_4C1hUtWpSeAj-59" vertex="1">
                    <mxGeometry y="270" width="210" height="280" as="geometry"/>
                </mxCell>
                <mxCell id="wn91IfR_4C1hUtWpSeAj-30" value="- List&amp;lt;DisplayObserver&amp;gt;&amp;nbsp;" style="text;strokeColor=none;fillColor=none;align=left;verticalAlign=top;spacingLeft=4;spacingRight=4;overflow=hidden;rotatable=0;points=[[0,0.5],[1,0.5]];portConstraint=eastwest;whiteSpace=wrap;html=1;" parent="wn91IfR_4C1hUtWpSeAj-29" vertex="1">
                    <mxGeometry y="26" width="210" height="26" as="geometry"/>
                </mxCell>
                <mxCell id="wn91IfR_4C1hUtWpSeAj-39" value="- int temp;" style="text;strokeColor=none;fillColor=none;align=left;verticalAlign=top;spacingLeft=4;spacingRight=4;overflow=hidden;rotatable=0;points=[[0,0.5],[1,0.5]];portConstraint=eastwest;whiteSpace=wrap;html=1;" parent="wn91IfR_4C1hUtWpSeAj-29" vertex="1">
                    <mxGeometry y="52" width="210" height="26" as="geometry"/>
                </mxCell>
                <mxCell id="wn91IfR_4C1hUtWpSeAj-31" value="" style="line;strokeWidth=1;fillColor=none;align=left;verticalAlign=middle;spacingTop=-1;spacingLeft=3;spacingRight=3;rotatable=0;labelPosition=right;points=[];portConstraint=eastwest;strokeColor=inherit;" parent="wn91IfR_4C1hUtWpSeAj-29" vertex="1">
                    <mxGeometry y="78" width="210" height="8" as="geometry"/>
                </mxCell>
                <mxCell id="wn91IfR_4C1hUtWpSeAj-32" value="+ add (DisplayObserver obj)" style="text;strokeColor=none;fillColor=none;align=left;verticalAlign=top;spacingLeft=4;spacingRight=4;overflow=hidden;rotatable=0;points=[[0,0.5],[1,0.5]];portConstraint=eastwest;whiteSpace=wrap;html=1;" parent="wn91IfR_4C1hUtWpSeAj-29" vertex="1">
                    <mxGeometry y="86" width="210" height="30" as="geometry"/>
                </mxCell>
                <mxCell id="wn91IfR_4C1hUtWpSeAj-33" value="+ remove(DisplayObserver obj)" style="text;strokeColor=none;fillColor=none;align=left;verticalAlign=top;spacingLeft=4;spacingRight=4;overflow=hidden;rotatable=0;points=[[0,0.5],[1,0.5]];portConstraint=eastwest;whiteSpace=wrap;html=1;" parent="wn91IfR_4C1hUtWpSeAj-29" vertex="1">
                    <mxGeometry y="116" width="210" height="30" as="geometry"/>
                </mxCell>
                <mxCell id="wn91IfR_4C1hUtWpSeAj-38" value="+ notify ()" style="text;strokeColor=none;fillColor=none;align=left;verticalAlign=top;spacingLeft=4;spacingRight=4;overflow=hidden;rotatable=0;points=[[0,0.5],[1,0.5]];portConstraint=eastwest;whiteSpace=wrap;html=1;" parent="wn91IfR_4C1hUtWpSeAj-29" vertex="1">
                    <mxGeometry y="146" width="210" height="30" as="geometry"/>
                </mxCell>
                <mxCell id="wn91IfR_4C1hUtWpSeAj-34" value="+ setTemp (int temp) { &lt;br&gt;&lt;span style=&quot;white-space: pre;&quot;&gt;&#9;&lt;/span&gt;this.temp = temp&lt;br&gt;&lt;span style=&quot;white-space: pre;&quot;&gt;&#9;&lt;/span&gt;notify()&lt;br&gt;}" style="text;strokeColor=none;fillColor=none;align=left;verticalAlign=top;spacingLeft=4;spacingRight=4;overflow=hidden;rotatable=0;points=[[0,0.5],[1,0.5]];portConstraint=eastwest;whiteSpace=wrap;html=1;" parent="wn91IfR_4C1hUtWpSeAj-29" vertex="1">
                    <mxGeometry y="176" width="210" height="70" as="geometry"/>
                </mxCell>
                <mxCell id="wn91IfR_4C1hUtWpSeAj-40" value="+ getTemp() : int" style="text;strokeColor=none;fillColor=none;align=left;verticalAlign=top;spacingLeft=4;spacingRight=4;overflow=hidden;rotatable=0;points=[[0,0.5],[1,0.5]];portConstraint=eastwest;whiteSpace=wrap;html=1;" parent="wn91IfR_4C1hUtWpSeAj-29" vertex="1">
                    <mxGeometry y="246" width="210" height="34" as="geometry"/>
                </mxCell>
                <mxCell id="wn91IfR_4C1hUtWpSeAj-41" value="MobileDisplayObserver" style="swimlane;fontStyle=1;align=center;verticalAlign=top;childLayout=stackLayout;horizontal=1;startSize=26;horizontalStack=0;resizeParent=1;resizeParentMax=0;resizeLast=0;collapsible=1;marginBottom=0;whiteSpace=wrap;html=1;" parent="wn91IfR_4C1hUtWpSeAj-59" vertex="1">
                    <mxGeometry x="300" y="206" width="160" height="140" as="geometry"/>
                </mxCell>
                <mxCell id="wn91IfR_4C1hUtWpSeAj-42" value="- obj : Observable" style="text;strokeColor=none;fillColor=none;align=left;verticalAlign=top;spacingLeft=4;spacingRight=4;overflow=hidden;rotatable=0;points=[[0,0.5],[1,0.5]];portConstraint=eastwest;whiteSpace=wrap;html=1;" parent="wn91IfR_4C1hUtWpSeAj-41" vertex="1">
                    <mxGeometry y="26" width="160" height="26" as="geometry"/>
                </mxCell>
                <mxCell id="wn91IfR_4C1hUtWpSeAj-43" value="" style="line;strokeWidth=1;fillColor=none;align=left;verticalAlign=middle;spacingTop=-1;spacingLeft=3;spacingRight=3;rotatable=0;labelPosition=right;points=[];portConstraint=eastwest;strokeColor=inherit;" parent="wn91IfR_4C1hUtWpSeAj-41" vertex="1">
                    <mxGeometry y="52" width="160" height="8" as="geometry"/>
                </mxCell>
                <mxCell id="wn91IfR_4C1hUtWpSeAj-44" value="MobileDisplayObserver(&lt;br&gt;Observanle o){&lt;br&gt;&lt;span style=&quot;white-space: pre;&quot;&gt;&#9;&lt;/span&gt;this.obj = o;&lt;br&gt;}" style="text;strokeColor=none;fillColor=none;align=left;verticalAlign=top;spacingLeft=4;spacingRight=4;overflow=hidden;rotatable=0;points=[[0,0.5],[1,0.5]];portConstraint=eastwest;whiteSpace=wrap;html=1;" parent="wn91IfR_4C1hUtWpSeAj-41" vertex="1">
                    <mxGeometry y="60" width="160" height="80" as="geometry"/>
                </mxCell>
                <mxCell id="wn91IfR_4C1hUtWpSeAj-49" value="" style="endArrow=block;dashed=1;endFill=0;endSize=12;html=1;rounded=0;exitX=0.5;exitY=0;exitDx=0;exitDy=0;entryX=0.5;entryY=1;entryDx=0;entryDy=0;" parent="wn91IfR_4C1hUtWpSeAj-59" source="wn91IfR_4C1hUtWpSeAj-29" target="zkfFHV4jXpPFQw0GAbJ--17" edge="1">
                    <mxGeometry width="160" relative="1" as="geometry">
                        <mxPoint y="230" as="sourcePoint"/>
                        <mxPoint x="115" y="180" as="targetPoint"/>
                    </mxGeometry>
                </mxCell>
                <mxCell id="wn91IfR_4C1hUtWpSeAj-50" value="" style="endArrow=block;dashed=1;endFill=0;endSize=12;html=1;rounded=0;" parent="wn91IfR_4C1hUtWpSeAj-59" edge="1">
                    <mxGeometry width="160" relative="1" as="geometry">
                        <mxPoint x="480" y="160" as="sourcePoint"/>
                        <mxPoint x="480" y="120" as="targetPoint"/>
                    </mxGeometry>
                </mxCell>
                <mxCell id="wn91IfR_4C1hUtWpSeAj-52" value="" style="endArrow=none;dashed=1;html=1;rounded=0;" parent="wn91IfR_4C1hUtWpSeAj-59" edge="1">
                    <mxGeometry width="50" height="50" relative="1" as="geometry">
                        <mxPoint x="370" y="160" as="sourcePoint"/>
                        <mxPoint x="610" y="160" as="targetPoint"/>
                    </mxGeometry>
                </mxCell>
                <mxCell id="wn91IfR_4C1hUtWpSeAj-53" value="" style="endArrow=none;dashed=1;html=1;rounded=0;exitX=0.44;exitY=-0.051;exitDx=0;exitDy=0;exitPerimeter=0;" parent="wn91IfR_4C1hUtWpSeAj-59" source="wn91IfR_4C1hUtWpSeAj-41" edge="1">
                    <mxGeometry width="50" height="50" relative="1" as="geometry">
                        <mxPoint x="320" y="210" as="sourcePoint"/>
                        <mxPoint x="370" y="160" as="targetPoint"/>
                    </mxGeometry>
                </mxCell>
                <mxCell id="wn91IfR_4C1hUtWpSeAj-54" value="" style="endArrow=none;dashed=1;html=1;rounded=0;" parent="wn91IfR_4C1hUtWpSeAj-59" edge="1">
                    <mxGeometry width="50" height="50" relative="1" as="geometry">
                        <mxPoint x="610" y="200" as="sourcePoint"/>
                        <mxPoint x="610" y="160" as="targetPoint"/>
                    </mxGeometry>
                </mxCell>
                <mxCell id="wn91IfR_4C1hUtWpSeAj-55" value="TVDisplayObserver" style="swimlane;fontStyle=1;align=center;verticalAlign=top;childLayout=stackLayout;horizontal=1;startSize=26;horizontalStack=0;resizeParent=1;resizeParentMax=0;resizeLast=0;collapsible=1;marginBottom=0;whiteSpace=wrap;html=1;" parent="wn91IfR_4C1hUtWpSeAj-59" vertex="1">
                    <mxGeometry x="540" y="206" width="160" height="140" as="geometry"/>
                </mxCell>
                <mxCell id="wn91IfR_4C1hUtWpSeAj-56" value="- obj : Observable" style="text;strokeColor=none;fillColor=none;align=left;verticalAlign=top;spacingLeft=4;spacingRight=4;overflow=hidden;rotatable=0;points=[[0,0.5],[1,0.5]];portConstraint=eastwest;whiteSpace=wrap;html=1;" parent="wn91IfR_4C1hUtWpSeAj-55" vertex="1">
                    <mxGeometry y="26" width="160" height="26" as="geometry"/>
                </mxCell>
                <mxCell id="wn91IfR_4C1hUtWpSeAj-57" value="" style="line;strokeWidth=1;fillColor=none;align=left;verticalAlign=middle;spacingTop=-1;spacingLeft=3;spacingRight=3;rotatable=0;labelPosition=right;points=[];portConstraint=eastwest;strokeColor=inherit;" parent="wn91IfR_4C1hUtWpSeAj-55" vertex="1">
                    <mxGeometry y="52" width="160" height="8" as="geometry"/>
                </mxCell>
                <mxCell id="wn91IfR_4C1hUtWpSeAj-58" value="TVDisplayObserver( Observanle o){&lt;br&gt;&lt;span style=&quot;white-space: pre;&quot;&gt;&#9;&lt;/span&gt;this.obj = o;&lt;br&gt;}" style="text;strokeColor=none;fillColor=none;align=left;verticalAlign=top;spacingLeft=4;spacingRight=4;overflow=hidden;rotatable=0;points=[[0,0.5],[1,0.5]];portConstraint=eastwest;whiteSpace=wrap;html=1;" parent="wn91IfR_4C1hUtWpSeAj-55" vertex="1">
                    <mxGeometry y="60" width="160" height="80" as="geometry"/>
                </mxCell>
                <mxCell id="wn91IfR_4C1hUtWpSeAj-60" value="Observer Design Patter&lt;br&gt;(Weather Station)" style="text;html=1;strokeColor=none;fillColor=none;align=center;verticalAlign=middle;whiteSpace=wrap;rounded=0;" parent="WIyWlLk6GJQsqaUBKTNV-1" vertex="1">
                    <mxGeometry x="490" y="20" width="200" height="50" as="geometry"/>
                </mxCell>
            </root>
        </mxGraphModel>
    </diagram>
</mxfile>